<?xml version="1.0" standalone="no"?>
<!DOCTYPE svg PUBLIC "-//W3C//DTD SVG 20010904//EN"
 "http://www.w3.org/TR/2001/REC-SVG-20010904/DTD/svg10.dtd">
<svg version="1.0" xmlns="http://www.w3.org/2000/svg"
 width="1211.000000pt" height="1280.000000pt" viewBox="0 0 1211.000000 1280.000000"
 preserveAspectRatio="xMidYMid meet">
<metadata>
Created by potrace 1.15, written by Peter Selinger 2001-2017
</metadata>
<g transform="translate(0.000000,1280.000000) scale(0.100000,-0.100000)"
fill="#ffffff" stroke="none">
<path d="M9660 12786 c-556 -100 -950 -560 -950 -1111 0 -619 503 -1125 1118
-1125 513 0 955 337 1090 831 106 387 -11 815 -301 1096 -154 150 -320 240
-537 293 -110 27 -316 35 -420 16z"/>
<path d="M6495 11040 c-365 -12 -3783 -303 -4600 -390 -321 -35 -454 -60 -592
-112 -58 -21 -58 -22 -28 -30 80 -22 251 -44 840 -108 3421 -372 3827 -409
4445 -410 438 0 786 28 926 75 276 92 443 303 405 510 -17 93 -56 162 -135
240 -165 163 -375 221 -821 229 -121 2 -319 1 -440 -4z"/>
<path d="M10731 10054 c-87 -23 -191 -84 -257 -150 -104 -103 -142 -220 -118
-360 28 -166 128 -394 291 -662 112 -183 358 -586 461 -754 91 -149 146 -270
147 -325 0 -52 -27 -82 -166 -188 -232 -177 -477 -324 -824 -495 -282 -139
-446 -211 -840 -367 -159 -64 -315 -128 -346 -143 -79 -40 -139 -110 -126
-147 1 -5 56 -7 122 -5 252 6 540 34 1010 97 780 105 1345 306 1715 608 148
120 244 290 292 512 7 36 12 124 12 220 -1 137 -6 181 -32 310 -59 289 -165
615 -324 995 -85 204 -143 312 -233 431 -156 209 -351 357 -549 418 -78 24
-158 26 -235 5z"/>
<path d="M6446 7710 c-203 -36 -482 -211 -774 -482 -325 -303 -806 -881 -1109
-1333 -282 -421 -408 -708 -420 -956 -6 -114 -5 -117 23 -168 34 -63 132 -157
198 -190 112 -55 225 -64 359 -30 228 58 420 203 905 686 719 718 1085 1175
1303 1628 197 409 198 629 6 755 -93 61 -199 91 -332 96 -60 1 -132 -1 -159
-6z"/>
<path d="M7770 6735 c-288 -47 -580 -242 -914 -611 -159 -175 -438 -530 -604
-769 -354 -507 -782 -1143 -1205 -1790 -677 -1035 -1828 -2874 -2034 -3249
-53 -98 -147 -305 -140 -312 12 -12 172 127 423 366 308 294 397 378 1099
1040 1561 1473 2426 2347 3214 3248 394 451 695 958 807 1357 25 87 28 118 29
240 0 152 -13 207 -71 295 -95 143 -362 225 -604 185z"/>
<path d="M1076 2539 c-255 -25 -507 -139 -694 -314 -302 -283 -438 -705 -356
-1101 95 -461 427 -805 894 -926 116 -31 416 -33 525 -4 366 95 626 294 794
607 92 170 135 348 135 554 1 206 -37 364 -132 549 -218 426 -689 682 -1166
635z"/>
</g>
</svg>
