<?xml version="1.0" encoding="utf-8"?>
<!-- Generator: Adobe Illustrator 24.0.0, SVG Export Plug-In . SVG Version: 6.00 Build 0)  -->
<svg version="1.1" id="Layer_1" xmlns="http://www.w3.org/2000/svg" xmlns:xlink="http://www.w3.org/1999/xlink" x="0px" y="0px"
	 viewBox="0 0 122.9 123.1" style="enable-background:new 0 0 122.9 123.1;" xml:space="preserve">
<style type="text/css">
	.st0{fill-rule:evenodd;clip-rule:evenodd;fill:#FFFFFF;}
</style>
<title>music-note</title>
<path class="st0" d="M11.7,13.9h6.2V16c15.5,3.5,17.3,11,8.3,22.7c1-11.6-0.2-14.1-8.3-14.7v29.4c0,0.2,0,0.3,0,0.5
	c0,3.8-4,7.6-9,8.5S0,60.8,0,57c0-5.2,7.2-9.7,11.7-8.1V13.9z M103,13.9h6.2V16c15.5,3.5,17.3,11,8.3,22.7c1-11.6-0.2-14.1-8.3-14.7
	v29.4c0,0.2,0,0.3,0,0.5c0,3.8-4,7.6-9,8.5s-9-1.5-9-5.4c0-5.2,7.2-9.7,11.7-8.1V13.9H103z M70.5,82.6c1.5-0.3,3-0.2,4.5,0.1V51.1
	l-33.4,9.6c0,12.4,0,24.9,0,37.3c0,5.8-6.4,10.1-11.6,11c-6.4,1.1-11.6-2-11.6-7S23.6,92.1,30,91c2.2-0.4,4.4-0.3,6.5,0.4V46.3
	L80,36.4v50.9c0.5,5.4-5,9.5-9.6,10.3c-5.3,0.9-9.7-1.7-9.7-5.8S65.1,83.5,70.5,82.6L70.5,82.6z"/>
</svg>
